HIERARCHY
ROOT hip
{
  OFFSET 0 0 0
  CHANNELS 6 Xposition Yposition Zposition Zrotation Yrotation Xrotation
  JOINT abdomen
  {
    OFFSET 0 20.6881 -0.73152
    CHANNELS 3 Zrotation Xrotation Yrotation
    JOINT chest
    {
      OFFSET 0 11.7043 -0.48768
      CHANNELS 3 Zrotation Xrotation Yrotation
      JOINT neck
      {
        OFFSET 0 22.1894 -2.19456
        CHANNELS 3 Zrotation Xrotation Yrotation
        JOINT head
        {
          OFFSET -0.24384 7.07133 1.2192
          CHANNELS 3 Zrotation Xrotation Yrotation
          JOINT leftEye
          {
            OFFSET 4.14528 8.04674 8.04672
            CHANNELS 3 Zrotation Xrotation Yrotation
            End Site
            {
              OFFSET 1 0 0
            }
          }
          JOINT rightEye
          {
            OFFSET -3.6576 8.04674 8.04672
            CHANNELS 3 Zrotation Xrotation Yrotation
            End Site
            {
              OFFSET 1 0 0
            }
          }
        }
      }
      JOINT rCollar
      {
        OFFSET -2.68224 19.2634 -4.8768
        CHANNELS 3 Zrotation Xrotation Yrotation
        JOINT rShldr
        {
          OFFSET -8.77824 -1.95073 1.46304
          CHANNELS 3 Zrotation Xrotation Yrotation
          JOINT rForeArm
          {
            OFFSET -28.1742 -1.7115 0.48768
            CHANNELS 3 Zrotation Xrotation Yrotation
            JOINT rHand
            {
              OFFSET -22.5879 0.773209 7.07136
              CHANNELS 3 Zrotation Xrotation Yrotation
              JOINT rThumb1
              {
                OFFSET -1.2192 -0.487915 3.41376
                CHANNELS 3 Zrotation Xrotation Yrotation
                JOINT rThumb2
                {
                  OFFSET -3.37035 -0.52449 3.41376
                  CHANNELS 3 Zrotation Xrotation Yrotation
                  End Site
                  {
                    OFFSET -1.78271 -1.18214 1.43049
                  }
                }
              }
              JOINT rIndex1
              {
                OFFSET -7.75947 0.938293 5.60832
                CHANNELS 3 Zrotation Xrotation Yrotation
                JOINT rIndex2
                {
                  OFFSET -2.54057 -0.884171 1.56538
                  CHANNELS 3 Zrotation Xrotation Yrotation
                  End Site
                  {
                    OFFSET -1.62519 -0.234802 1.16502
                  }
                }
              }
              JOINT rMid1
              {
                OFFSET -8.24714 1.18213 3.41376
                CHANNELS 3 Zrotation Xrotation Yrotation
                JOINT rMid2
                {
                  OFFSET -3.10165 -0.590103 1.0647
                  CHANNELS 3 Zrotation Xrotation Yrotation
                  End Site
                  {
                    OFFSET -2.48547 -0.328903 0.83742
                  }
                }
              }
              JOINT rRing1
              {
                OFFSET -8.82822 0.546677 1.51678
                CHANNELS 3 Zrotation Xrotation Yrotation
                JOINT rRing2
                {
                  OFFSET -2.60934 -0.819778 -0.0198488
                  CHANNELS 3 Zrotation Xrotation Yrotation
                  End Site
                  {
                    OFFSET -2.33842 -0.294052 0.168128
                  }
                }
              }
              JOINT rPinky1
              {
                OFFSET -8.27202 -0.0477905 -0.4584
                CHANNELS 3 Zrotation Xrotation Yrotation
                JOINT rPinky2
                {
                  OFFSET -1.82734 -0.647385 -0.700984
                  CHANNELS 3 Zrotation Xrotation Yrotation
                  End Site
                  {
                    OFFSET -1.69225 -0.51767 -0.607171
                  }
                }
              }
            }
          }
        }
      }
      JOINT lCollar
      {
        OFFSET 2.68224 19.2634 -4.8768
        CHANNELS 3 Zrotation Xrotation Yrotation
        JOINT lShldr
        {
          OFFSET 8.77824 -1.95073 1.46304
          CHANNELS 3 Zrotation Xrotation Yrotation
          JOINT lForeArm
          {
            OFFSET 28.1742 -1.7115 0.48768
            CHANNELS 3 Zrotation Xrotation Yrotation
            JOINT lHand
            {
              OFFSET 22.5879 0.773209 7.07136
              CHANNELS 3 Zrotation Xrotation Yrotation
              JOINT lThumb1
              {
                OFFSET 1.2192 -0.487915 3.41376
                CHANNELS 3 Zrotation Xrotation Yrotation
                JOINT lThumb2
                {
                  OFFSET 3.37035 -0.52449 3.41376
                  CHANNELS 3 Zrotation Xrotation Yrotation
                  End Site
                  {
                    OFFSET 1.78271 -1.18214 1.43049
                  }
                }
              }
              JOINT lIndex1
              {
                OFFSET 7.75947 0.938293 5.60832
                CHANNELS 3 Zrotation Xrotation Yrotation
                JOINT lIndex2
                {
                  OFFSET 2.54057 -0.884171 1.56538
                  CHANNELS 3 Zrotation Xrotation Yrotation
                  End Site
                  {
                    OFFSET 1.62519 -0.234802 1.16502
                  }
                }
              }
              JOINT lMid1
              {
                OFFSET 8.24714 1.18213 3.41376
                CHANNELS 3 Zrotation Xrotation Yrotation
                JOINT lMid2
                {
                  OFFSET 3.10165 -0.590103 1.0647
                  CHANNELS 3 Zrotation Xrotation Yrotation
                  End Site
                  {
                    OFFSET 2.48547 -0.328903 0.83742
                  }
                }
              }
              JOINT lRing1
              {
                OFFSET 8.82822 0.546677 1.51678
                CHANNELS 3 Zrotation Xrotation Yrotation
                JOINT lRing2
                {
                  OFFSET 2.60934 -0.819778 -0.0198488
                  CHANNELS 3 Zrotation Xrotation Yrotation
                  End Site
                  {
                    OFFSET 2.33842 -0.294052 0.168128
                  }
                }
              }
              JOINT lPinky1
              {
                OFFSET 8.27202 -0.0477905 -0.4584
                CHANNELS 3 Zrotation Xrotation Yrotation
                JOINT lPinky2
                {
                  OFFSET 1.82734 -0.647385 -0.700984
                  CHANNELS 3 Zrotation Xrotation Yrotation
                  End Site
                  {
                    OFFSET 1.69225 -0.51767 -0.607171
                  }
                }
              }
            }
          }
        }
      }
    }
  }
  JOINT rButtock
  {
    OFFSET -8.77824 4.35084 1.2192
    CHANNELS 3 Zrotation Xrotation Yrotation
    JOINT rThigh
    {
      OFFSET 0 -1.70687 -2.19456
      CHANNELS 3 Zrotation Xrotation Yrotation
      JOINT rShin
      {
        OFFSET 0 -36.8199 0.73152
        CHANNELS 3 Zrotation Xrotation Yrotation
        JOINT rFoot
        {
          OFFSET 0.73152 -45.1104 -5.12064
          CHANNELS 3 Zrotation Xrotation Yrotation
          End Site
          {
            OFFSET -1.1221 -3.69964 12.103
          }
        }
      }
    }
  }
  JOINT lButtock
  {
    OFFSET 8.77824 4.35084 1.2192
    CHANNELS 3 Zrotation Xrotation Yrotation
    JOINT lThigh
    {
      OFFSET 0 -1.70687 -2.19456
      CHANNELS 3 Zrotation Xrotation Yrotation
      JOINT lShin
      {
        OFFSET 0 -36.8199 0.73152
        CHANNELS 3 Zrotation Xrotation Yrotation
        JOINT lFoot
        {
          OFFSET -0.73152 -45.1104 -5.12064
          CHANNELS 3 Zrotation Xrotation Yrotation
          End Site
          {
            OFFSET 1.1221 -3.69964 12.103
          }
        }
      }
    }
  }
}
MOTION
Frames:	4
Frame Time:	0.03333
0.010629557073116302 -6.073375418782234 -0.024337507784366608 -4.436556339263916 1.8984037637710571 6.026098251342773 -2.9916348457336426 13.939807891845703 3.4152839183807373 2.9745142459869385 -9.34492301940918 1.168858289718628 -5.443112850189209 15.17910099029541 -4.167863368988037 9.212167739868164 -24.07110595703125 -6.374448299407959 -0.07649553567171097 0.1565822809934616 0.101331427693367 -0.014552384614944458 0.012745787389576435 0.04010201618075371 0.02509167045354843 -0.12873396277427673 0.04829217121005058 47.36813735961914 37.31989669799805 17.113182067871094 -27.23452377319336 -26.91728401184082 62.1353759765625 -0.04851137846708298 -9.306913375854492 -1.4165058135986328 0.025214511901140213 -0.08038660883903503 0.006648137234151363 0.03799402341246605 -0.00823117047548294 0.0853087306022644 -0.036404505372047424 0.02493854984641075 -0.08387208729982376 7.656554698944092 5.475435256958008 0.3282782733440399 0.05407149717211723 0.07972992211580276 -0.005825144704431295 2.980039119720459 1.0341593027114868 0.12520603835582733 0.041653573513031006 -0.07658130675554276 -0.019390368834137917 10.327059745788574 0.8253380656242371 0.03318139538168907 -0.019419388845562935 0.07665780186653137 -0.16824227571487427 2.2100863456726074 -0.6070730090141296 -0.23453684151172638 -0.04044805467128754 0.057746946811676025 0.041650813072919846 -54.24617385864258 40.414432525634766 -27.36797332763672 26.621448516845703 -25.005550384521484 -59.21549606323242 0.13287074863910675 -12.925469398498535 1.833387017250061 -0.022497063502669334 0.03805368021130562 -0.01724434271454811 0.07593181729316711 -0.11062020063400269 0.020204177126288414 -0.018363453447818756 -0.0735439658164978 0.04223405569791794 -7.748040676116943 5.380131244659424 -0.531916081905365 0.018449274823069572 -0.06835886836051941 -0.08408641815185547 -2.861671209335327 0.9969357252120972 -0.026085318997502327 0.0159770417958498 0.01794181391596794 -0.025027640163898468 -10.371573448181152 0.7081271409988403 -0.007924171164631844 -0.05106115713715553 -0.04403746873140335 -0.0670073851943016 -2.2873945236206055 -0.7833352088928223 0.26527684926986694 0.114964060485363 -0.06321829557418823 0.006688196212053299 -23.90483856201172 -39.57496643066406 -19.4656982421875 -1.3023837804794312 63.619022369384766 2.3141422271728516 -3.5404915809631348 -10.459240913391113 -9.38070297241211 -0.12777508795261383 0.02351272478699684 -0.037824660539627075 27.512725830078125 -37.37467956542969 20.849512100219727 1.540926218032837 64.08597564697266 -2.7849819660186768 4.632515907287598 -11.1630220413208 14.426591873168945
0.017778761684894562 -6.079477816820145 -0.05105482414364815 -4.055845260620117 2.2678372859954834 6.170380592346191 -2.970881462097168 13.872249603271484 3.527228832244873 2.948540449142456 -9.36058521270752 1.146701455116272 -5.416407585144043 15.180453300476074 -4.1975836753845215 9.251030921936035 -24.079626083374023 -6.32985782623291 -0.06702452898025513 0.1606454700231552 0.10179448872804642 -0.037971802055835724 0.0051528094336390495 0.1513095498085022 -0.009344320744276047 -0.14380936324596405 0.022894499823451042 47.36974334716797 37.12776184082031 17.214811325073242 -27.16920280456543 -26.92119598388672 62.33243179321289 -0.026599550619721413 -9.206937789916992 -1.3412009477615356 0.007641913369297981 -0.15423648059368134 -0.03706106171011925 -0.016465896740555763 0.04853984713554382 0.17164888978004456 0.02613539807498455 -0.01225203089416027 -0.06197628751397133 7.6653733253479 5.503601551055908 0.311012864112854 0.05943803861737251 0.10000316798686981 0.0254984050989151 2.898322582244873 1.0656002759933472 0.07146766036748886 0.09442976862192154 -0.08786617964506149 -0.011189468204975128 10.349507331848145 0.7533244490623474 -0.025286417454481125 0.06395234167575836 0.07821187376976013 -0.132460817694664 2.1707873344421387 -0.639224648475647 -0.3231664299964905 0.032729730010032654 0.046636708080768585 0.03003930114209652 -54.18781280517578 40.3581657409668 -27.410261154174805 26.52141571044922 -24.91353416442871 -59.216461181640625 0.13104332983493805 -13.069180488586426 1.8128825426101685 -0.04932519420981407 0.09364622086286545 -0.06411980092525482 0.09522341191768646 -0.09852182120084763 0.04550725221633911 -0.014009878039360046 -0.07554113119840622 0.07611681520938873 -7.843837261199951 5.371554374694824 -0.5309802889823914 0.000429237523349002 -0.07637083530426025 -0.17814300954341888 -2.859809160232544 1.038400650024414 0.024277906864881516 0.007760315202176571 -0.07017553597688675 -0.04735624045133591 -10.324251174926758 0.6738715171813965 0.01643218658864498 -0.0880330502986908 -0.02497832663357258 -0.004107127897441387 -2.257485866546631 -0.7728496193885803 0.25876325368881226 0.08345933258533478 -0.06367408484220505 -0.015193319879472256 -24.122905731201172 -39.90672302246094 -19.530014038085938 -1.4027761220932007 63.60520553588867 2.3767685890197754 -3.5301434993743896 -10.437646865844727 -9.255805969238281 -0.13916024565696716 0.039912089705467224 0.014382044784724712 27.276538848876953 -37.266780853271484 20.88934898376465 1.7181822061538696 64.29450988769531 -2.937682867050171 4.666722297668457 -11.1740083694458 14.528903007507324
-0.019147060811519623 -6.286396831274033 0.003363192081451416 -17.449033737182617 -36.247676849365234 8.522978782653809 6.483971118927002 16.868240356445312 9.601012229919434 -1.1250755786895752 -9.908814430236816 2.490804433822632 0.1533770114183426 12.528223037719727 8.735077857971191 4.45442008972168 -28.358064651489258 17.957881927490234 -0.204043447971344 -0.33125874400138855 0.028914542868733406 -0.11467854678630829 -0.10094775259494781 0.11991863697767258 0.19316107034683228 -0.23212668299674988 0.12320857495069504 70.13560485839844 27.591136932373047 -12.648627281188965 -28.04081153869629 -33.294986724853516 72.31552124023438 -11.528203964233398 -65.723388671875 -18.101776123046875 0.1167035922408104 -0.1694125533103943 -0.08143533766269684 -0.018066074699163437 0.18638351559638977 -0.20257073640823364 -0.12912707030773163 0.2624017894268036 0.06676574051380157 7.826307773590088 5.801363468170166 0.17815305292606354 -0.07051383703947067 -0.045971307903528214 0.029109163209795952 3.0307624340057373 1.0951905250549316 0.3917540907859802 0.4807470440864563 -0.1471589058637619 -0.2303171455860138 10.157415390014648 0.5255866050720215 0.11214973777532578 -0.30236178636550903 0.10654587298631668 -0.009768662042915821 2.2958199977874756 -0.5782680511474609 -0.19392411410808563 -0.4092055857181549 0.11047545820474625 -0.307288259267807 -57.9316520690918 14.687856674194336 -27.462678909301758 27.719985961914062 -43.729957580566406 -90.24250793457031 1.1856003999710083 -26.379423141479492 3.8039164543151855 -0.2133602648973465 0.2001107633113861 -0.13844868540763855 -0.1345224827528 -0.11751612275838852 0.3695097267627716 -0.17970283329486847 -0.2697731852531433 -0.035568058490753174 -7.77099609375 5.254824161529541 -0.5894280672073364 0.2782402038574219 0.10715106874704361 0.19686436653137207 -2.5855894088745117 0.8180241584777832 0.21236228942871094 -0.16100113093852997 -0.4014699459075928 -0.1780717670917511 -10.135910987854004 0.7357528209686279 -0.35755544900894165 -0.2470059096813202 -0.11515037715435028 0.2423309087753296 -2.2869198322296143 -0.926724910736084 0.1851765662431717 0.35138988494873047 -0.0969783291220665 0.12067965418100357 -5.722940444946289 -23.305965423583984 -11.42236614227295 -1.3992894887924194 62.864559173583984 2.761446237564087 -12.95345687866211 -17.308794021606445 -30.40595054626465 -0.6321799755096436 0.15672653913497925 -0.02329097129404545 71.7513427734375 -64.72268676757812 57.07356262207031 3.062873363494873 76.79031372070312 -2.9885971546173096 0.14462850987911224 9.464813232421875 0.5478593707084656
-0.0075798481702804565 -6.547708064317703 0.0754539854824543 -15.455373764038086 -32.58980941772461 11.521760940551758 7.464483737945557 19.208633422851562 7.712808132171631 -1.0019248723983765 -10.232219696044922 2.159904956817627 0.08354785293340683 13.034186363220215 9.045710563659668 4.760250091552734 -31.67409896850586 18.78989601135254 -0.06199541687965393 0.07490850985050201 0.18042005598545074 -0.14840932190418243 -0.019566187635064125 0.2796590030193329 0.25636306405067444 0.12350599467754364 0.34117591381073 63.98344039916992 19.407512664794922 -4.735605716705322 -27.327823638916016 -29.140792846679688 65.23532104492188 -6.1649088859558105 -55.563499450683594 -12.033956527709961 0.10186300426721573 -0.04733677953481674 0.05029810592532158 0.26882272958755493 0.0016433567507192492 -0.2709965705871582 -0.1367054581642151 0.1172666996717453 0.01702258735895157 7.661203384399414 5.570874214172363 0.07356710731983185 0.18665404617786407 0.20502087473869324 0.3938417434692383 3.2553985118865967 0.8491126894950867 0.5515801906585693 -0.17716173827648163 -0.30600646138191223 0.023973628878593445 9.673600196838379 0.7104189395904541 0.10695887356996536 -0.06138535588979721 0.11938782036304474 0.4903455078601837 2.027866840362549 -0.27625519037246704 -0.11198330670595169 -0.05941271036863327 0.1305450052022934 -0.15061631798744202 -59.15969467163086 21.64727020263672 -29.92766761779785 25.420297622680664 -47.017250061035156 -98.30156707763672 1.0032392740249634 -23.548734664916992 3.060063123703003 -0.2549930512905121 0.05150383710861206 0.0770009234547615 0.3792341351509094 -0.16515888273715973 0.4848206639289856 -0.2637609541416168 -0.45968350768089294 0.3519006371498108 -7.826439380645752 5.357316017150879 -0.30308952927589417 0.4556277096271515 -0.46832385659217834 0.4411604404449463 -2.5889344215393066 0.4251987934112549 0.2861168086528778 -0.0001490088616264984 -0.2651527225971222 -0.1299777776002884 -9.847084999084473 0.9488322138786316 -0.045969389379024506 -0.19259212911128998 -0.17297875881195068 -0.1864262968301773 -2.2651560306549072 -0.8733606338500977 0.33765411376953125 -0.121898353099823 -0.20128798484802246 0.19196878373622894 -3.7679457664489746 -25.986923217773438 -13.81502628326416 -1.092191219329834 65.54669952392578 2.643399477005005 -14.142866134643555 -16.555437088012695 -31.92682647705078 -0.12218064814805984 0.34325674176216125 0.017345067113637924 70.37564086914062 -69.78096771240234 53.66169357299805 3.8412251472473145 74.93135070800781 -4.049881458282471 0.21203014254570007 11.211405754089355 0.4251273572444916
